<svg width="200" height="200" viewBox="0 0 200 200" fill="none" xmlns="http://www.w3.org/2000/svg" role="img" aria-label="General assessments illustration">
  <defs>
    <linearGradient id="ga-orange" x1="0" y1="0" x2="1" y2="1">
      <stop offset="0" stop-color="#FF8A3D"/>
      <stop offset="1" stop-color="#FF6500"/>
    </linearGradient>
  </defs>

  <!-- Halo -->
  <circle cx="100" cy="100" r="70" fill="#FF6500" opacity="0.14"/>
  <circle cx="100" cy="100" r="70" fill="none" stroke="#FF6500" stroke-opacity="0.25" stroke-width="1.5" stroke-dasharray="4 8"/>

  <!-- Document / answer sheet -->
  <rect x="62" y="74" width="76" height="92" rx="12" fill="#FFFFFF"/>
  <rect x="62" y="74" width="76" height="92" rx="12" fill="none" stroke="#E7EBF1" stroke-width="1.5"/>

  <!-- Checklist rows -->
  <circle cx="80" cy="100" r="6.5" fill="url(#ga-orange)"/>
  <path d="M77 100.5l2 2 4-4.5" stroke="#FFFFFF" stroke-width="1.8" stroke-linecap="round" stroke-linejoin="round" fill="none"/>
  <rect x="92" y="96" width="36" height="7" rx="3.5" fill="#FFB98C"/>

  <circle cx="80" cy="122" r="6.5" fill="url(#ga-orange)"/>
  <path d="M77 122.5l2 2 4-4.5" stroke="#FFFFFF" stroke-width="1.8" stroke-linecap="round" stroke-linejoin="round" fill="none"/>
  <rect x="92" y="118" width="30" height="7" rx="3.5" fill="#D3DAE5"/>

  <circle cx="80" cy="144" r="6.5" fill="#FFFFFF" stroke="#C7CFDC" stroke-width="1.6"/>
  <rect x="92" y="140" width="34" height="7" rx="3.5" fill="#D3DAE5"/>

  <!-- Graduation cap -->
  <g>
    <path d="M100 36l44 18-44 18-44-18 44-18z" fill="url(#ga-orange)"/>
    <path d="M100 72l28-11.5v16c0 7-12.5 12-28 12s-28-5-28-12v-16L100 72z" fill="#FF6500"/>
    <path d="M100 72l28-11.5v16c0 7-12.5 12-28 12s-28-5-28-12v-16L100 72z" fill="#000000" opacity="0.12"/>
    <line x1="144" y1="54" x2="144" y2="78" stroke="#FFFFFF" stroke-width="2.4" stroke-linecap="round"/>
    <circle cx="144" cy="80" r="4" fill="#FFFFFF"/>
  </g>
</svg>
