<svg width="350" height="450" viewBox="0 0 280 360" fill="none" xmlns="http://www.w3.org/2000/svg" role="img" aria-label="Customer support chat illustration">
  <defs>
    <linearGradient id="cl-o" x1="0" y1="0" x2="1" y2="1">
      <stop offset="0" stop-color="#FF8A3D"/><stop offset="1" stop-color="#FF6500"/>
    </linearGradient>
    <filter id="cl-sh" x="-20%" y="-20%" width="140%" height="140%">
      <feDropShadow dx="0" dy="12" stdDeviation="16" flood-color="#FF6500" flood-opacity="0.18"/>
    </filter>
  </defs>

  <circle cx="140" cy="180" r="118" fill="#FF6500" opacity="0.10"/>
  <circle cx="140" cy="180" r="118" fill="none" stroke="#FF6500" stroke-opacity="0.18" stroke-width="1.5" stroke-dasharray="3 9"/>

  <!-- Incoming bubble -->
  <g filter="url(#cl-sh)">
    <path d="M56 96h120a16 16 0 0 1 16 16v44a16 16 0 0 1-16 16H92l-24 22v-22H56a16 16 0 0 1-16-16v-44a16 16 0 0 1 16-16z" fill="#FFFFFF" stroke="#E7EBF1" stroke-width="1.5"/>
  </g>
  <rect x="60" y="120" width="92" height="9" rx="4.5" fill="#D3DAE5"/>
  <rect x="60" y="138" width="64" height="9" rx="4.5" fill="#E7EBF1"/>

  <!-- Reply bubble (brand) -->
  <g filter="url(#cl-sh)">
    <path d="M104 196h120a16 16 0 0 1 16 16v44a16 16 0 0 1-16 16h-12v22l-24-22h-84a16 16 0 0 1-16-16v-44a16 16 0 0 1 16-16z" fill="url(#cl-o)"/>
  </g>
  <rect x="124" y="220" width="92" height="9" rx="4.5" fill="#FFFFFF" opacity="0.95"/>
  <rect x="124" y="238" width="60" height="9" rx="4.5" fill="#FFFFFF" opacity="0.7"/>

  <!-- Support headset badge -->
  <g filter="url(#cl-sh)">
    <circle cx="214" cy="120" r="30" fill="#FFFFFF" stroke="#E7EBF1" stroke-width="1.5"/>
  </g>
  <path d="M200 124v-2a14 14 0 0 1 28 0v2" fill="none" stroke="url(#cl-o)" stroke-width="3.4" stroke-linecap="round"/>
  <rect x="197" y="123" width="9" height="16" rx="4" fill="url(#cl-o)"/>
  <rect x="222" y="123" width="9" height="16" rx="4" fill="url(#cl-o)"/>
  <path d="M226 139v3a8 8 0 0 1-8 8h-4" fill="none" stroke="url(#cl-o)" stroke-width="3" stroke-linecap="round"/>

  <path d="M70 300c1.6 8 4 10.4 12 12-8 1.6-10.4 4-12 12-1.6-8-4-10.4-12-12 8-1.6 10.4-4 12-12z" fill="url(#cl-o)" opacity="0.85"/>
</svg>
